<?xml version="1.0" encoding="utf-8"?>
<!-- Generator: Adobe Illustrator 18.1.1, SVG Export Plug-In . SVG Version: 6.00 Build 0)  -->
<!DOCTYPE svg PUBLIC "-//W3C//DTD SVG 1.1//EN" "http://www.w3.org/Graphics/SVG/1.1/DTD/svg11.dtd">
<svg version="1.1" xmlns="http://www.w3.org/2000/svg" xmlns:xlink="http://www.w3.org/1999/xlink" x="0px" y="0px"
	 viewBox="0 0 261 256" enable-background="new 0 0 261 256" xml:space="preserve">
<g id="Layer_1">
	<linearGradient id="SVGID_1_" gradientUnits="userSpaceOnUse" x1="94.9053" y1="93.4798" x2="166.5459" y2="165.1205">
		<stop  offset="0.1166" style="stop-color:#DCDDDE"/>
		<stop  offset="0.182" style="stop-color:#D2D4D5"/>
		<stop  offset="0.2982" style="stop-color:#B9BBBD"/>
		<stop  offset="0.4479" style="stop-color:#939598"/>
		<stop  offset="0.5828" style="stop-color:#939598"/>
		<stop  offset="0.8957" style="stop-color:#D1D3D4"/>
	</linearGradient>
	<path fill="url(#SVGID_1_)" d="M131,79.7c-27.8,0-50.4,22.3-50.4,49.8c0,27.5,22.6,49.8,50.4,49.8c27.8,0,50.4-22.3,50.4-49.8
		C181.3,102,158.8,79.7,131,79.7L131,79.7z"/>
	<circle cx="131" cy="129.5" r="48.5"/>
	<radialGradient id="SVGID_2_" cx="103.0949" cy="74.712" r="83.104" gradientUnits="userSpaceOnUse">
		<stop  offset="0" style="stop-color:#CCD3E0"/>
		<stop  offset="0.201" style="stop-color:#9CA2AC"/>
		<stop  offset="0.5943" style="stop-color:#51555D"/>
		<stop  offset="0.8694" style="stop-color:#20232A"/>
		<stop  offset="1" style="stop-color:#000000"/>
	</radialGradient>
	<path fill="url(#SVGID_2_)" d="M179.2,129.5c0,26.6-21.6,48.2-48.2,48.2c-26.6,0-48.2-21.6-48.2-48.2c0-26.6,21.6-48.2,48.2-48.2
		C157.6,81.3,179.2,102.9,179.2,129.5z"/>
	<path d="M163.3,129.5c0,17.6-14.5,31.9-32.3,31.9c-17.9,0-32.3-14.3-32.3-31.9c0-17.6,14.5-31.9,32.3-31.9
		C148.8,97.6,163.3,111.9,163.3,129.5z"/>
	<path fill="#A7A9AC" d="M162.5,129.5c0,17.3-14.1,31.3-31.5,31.3c-17.4,0-31.5-14-31.5-31.3c0-17.3,14.1-31.4,31.5-31.4
		C148.4,98.2,162.5,112.2,162.5,129.5z"/>
	<linearGradient id="SVGID_3_" gradientUnits="userSpaceOnUse" x1="146.3665" y1="99.3855" x2="146.3665" y2="129.105">
		<stop  offset="0.7423" style="stop-color:#FFFFFF"/>
		<stop  offset="1" style="stop-color:#E6E7E8"/>
	</linearGradient>
	<path fill="url(#SVGID_3_)" d="M131.5,129h29.7c-0.3-16.3-13.4-29.4-29.7-29.7V129z"/>
	<radialGradient id="SVGID_4_" cx="130.3421" cy="128.8855" r="29.5479" gradientUnits="userSpaceOnUse">
		<stop  offset="0.3374" style="stop-color:#2B93D1"/>
		<stop  offset="0.7975" style="stop-color:#72C6EF"/>
	</radialGradient>
	<path fill="url(#SVGID_4_)" d="M130.4,129V99.3c-16.3,0.3-29.4,13.4-29.7,29.7L130.4,129z"/>
	<linearGradient id="SVGID_5_" gradientUnits="userSpaceOnUse" x1="115.5625" y1="130.0704" x2="115.5625" y2="159.7523">
		<stop  offset="0.4724" style="stop-color:#FFFFFF"/>
		<stop  offset="0.99" style="stop-color:#D1D3D4"/>
	</linearGradient>
	<path fill="url(#SVGID_5_)" d="M130.4,130.1l-29.7,0c0.3,16.3,13.4,29.5,29.7,29.7V130.1z"/>
	<radialGradient id="SVGID_6_" cx="131.2971" cy="129.8405" r="29.9506" gradientUnits="userSpaceOnUse">
		<stop  offset="0.411" style="stop-color:#2B93D1"/>
		<stop  offset="0.8589" style="stop-color:#1F6B9D"/>
	</radialGradient>
	<path fill="url(#SVGID_6_)" d="M131.5,130.1v29.7c16.3-0.3,29.4-13.4,29.7-29.7H131.5z"/>
	<g>
		<polygon points="132.9,96.3 136.1,87.5 136.3,96.5 139.3,96.9 139.1,84.1 134.9,83.6 131.5,92.7 131.5,92.7 128.1,83.6 
			123.9,84.1 123.7,96.9 126.8,96.5 126.9,87.5 130.1,96.3 		"/>
		<polygon points="167.6,101.7 163.3,108 170.1,104.7 171.6,107.3 160.7,112.3 159,109.7 163.2,103.4 163.2,103.3 156.2,106.3 
			153.9,104.1 160.9,94.5 163.2,96.3 158.6,102.4 165.6,99.3 		"/>
		<path d="M108.4,99.9c-1-1-2.6-1.3-4.1-0.4c0.3-0.7,0.2-1.5,0-1.9c-0.6-1.2-0.9-1.3-1.4-1.8c-1.7-1.4-3.5-0.2-4.8,1.3l-6.2,7.4
			l9.8,8.2l6.5-7.8C109.7,103.2,110,101.4,108.4,99.9L108.4,99.9z M95.8,103.4L95.8,103.4l3.7-4.4c0.4-0.5,1.4-0.5,2,0
			c0.7,0.6,0.7,1.4,0.2,1.9l-3.7,4.4L95.8,103.4L95.8,103.4z M106.1,104.2L106.1,104.2l-3.9,4.6l-2.4-2l3.9-4.7
			c0.4-0.5,1.4-0.7,2.1-0.1C106.5,102.6,106.6,103.6,106.1,104.2z"/>
	</g>
	<linearGradient id="SVGID_7_" gradientUnits="userSpaceOnUse" x1="123.7697" y1="96.0212" x2="138.5197" y2="83.9241">
		<stop  offset="0.4908" style="stop-color:#FFFFFF"/>
		<stop  offset="0.5991" style="stop-color:#F3F4F4"/>
		<stop  offset="0.7834" style="stop-color:#DDDEDF"/>
		<stop  offset="1" style="stop-color:#BCBEC0"/>
	</linearGradient>
	<polygon fill="url(#SVGID_7_)" points="132.3,95.9 135.5,87.1 135.6,96 138.7,96.5 138.4,83.7 134.3,83.2 130.9,92.3 130.9,92.3 
		127.5,83.2 123.3,83.7 123.1,96.5 126.2,96 126.3,87.1 129.5,95.9 	"/>
	<linearGradient id="SVGID_8_" gradientUnits="userSpaceOnUse" x1="91.5365" y1="103.5439" x2="109.0644" y2="103.5439">
		<stop  offset="0.6442" style="stop-color:#FFFFFF"/>
		<stop  offset="0.7199" style="stop-color:#F3F4F4"/>
		<stop  offset="0.8486" style="stop-color:#DDDEDF"/>
		<stop  offset="1" style="stop-color:#BCBEC0"/>
	</linearGradient>
	<path fill="url(#SVGID_8_)" d="M108,99.4c-1-1-2.6-1.3-4.1-0.4c0.3-0.7,0.2-1.5,0-1.9c-0.6-1.2-0.9-1.3-1.4-1.8
		c-1.7-1.4-3.5-0.2-4.8,1.3l-6.2,7.4l9.8,8.2l6.5-7.8C109.3,102.7,109.6,101,108,99.4L108,99.4z M95.4,103L95.4,103l3.7-4.4
		c0.4-0.5,1.4-0.5,2,0c0.7,0.6,0.7,1.4,0.2,1.9l-3.7,4.4L95.4,103L95.4,103z M105.7,103.7L105.7,103.7l-3.9,4.6l-2.4-2l3.9-4.7
		c0.4-0.5,1.4-0.7,2.1-0.1C106.1,102.2,106.2,103.1,105.7,103.7z"/>
	<g>
		<linearGradient id="SVGID_9_" gradientUnits="userSpaceOnUse" x1="153.2796" y1="103.0443" x2="170.961" y2="103.0443">
			<stop  offset="0.2331" style="stop-color:#FFFFFF"/>
			<stop  offset="0.3962" style="stop-color:#F3F4F4"/>
			<stop  offset="0.6738" style="stop-color:#DDDEDF"/>
			<stop  offset="1" style="stop-color:#BCBEC0"/>
		</linearGradient>
		<polygon fill="url(#SVGID_9_)" points="167.2,101.5 162.7,107.7 169.5,104.3 171,106.9 160.1,111.9 158.4,109.3 162.6,103 
			162.6,103 155.6,106 153.3,103.7 160.3,94.1 162.5,96 158,102.1 165.2,99.1 		"/>
	</g>
</g>
<g id="Layer_2">
	<linearGradient id="SVGID_10_" gradientUnits="userSpaceOnUse" x1="101.8105" y1="133.548" x2="124.7312" y2="160.8195">
		<stop  offset="0" style="stop-color:#EFF0F3"/>
		<stop  offset="0.1067" style="stop-color:#E8EAEC"/>
		<stop  offset="0.2464" style="stop-color:#DCDEE1"/>
		<stop  offset="0.4046" style="stop-color:#C8CACE"/>
		<stop  offset="0.5762" style="stop-color:#ACAFB2"/>
		<stop  offset="0.7587" style="stop-color:#898C8F"/>
		<stop  offset="0.9476" style="stop-color:#606163"/>
		<stop  offset="1" style="stop-color:#515254"/>
	</linearGradient>
	<path fill="url(#SVGID_10_)" d="M130.4,159.3c-16-0.3-28.9-13.2-29.2-29.2h-0.5c0.3,16.3,13.4,29.4,29.7,29.7V159.3z"/>
	<polygon fill="#1F6B9D" points="129.9,99.2 129.9,128.4 100.7,128.4 100.7,129 129.9,129 130.4,129 130.4,128.4 130.4,99.2 	"/>
	<polygon fill="#515254" points="130.4,130.1 130.4,159.8 129.9,159.3 129.9,130.6 	"/>
	<polygon fill="#F1F2F2" points="129.9,130.6 101.3,130.6 100.7,130.1 130.4,130.1 	"/>
	<polygon fill="#74C1EC" points="131.9,159.8 131.9,130.5 161.2,130.5 161.2,130.1 131.5,130.1 131.5,159.8 	"/>
	<linearGradient id="SVGID_11_" gradientUnits="userSpaceOnUse" x1="139.3086" y1="107.9" x2="146.5245" y2="129.2293">
		<stop  offset="0" style="stop-color:#FFFFFF"/>
		<stop  offset="0.1067" style="stop-color:#F7F8F8"/>
		<stop  offset="0.2464" style="stop-color:#E9EAEB"/>
		<stop  offset="0.4046" style="stop-color:#D3D4D6"/>
		<stop  offset="0.5762" style="stop-color:#B3B5B7"/>
		<stop  offset="0.7587" style="stop-color:#8D8F92"/>
		<stop  offset="0.9476" style="stop-color:#616264"/>
		<stop  offset="1" style="stop-color:#515254"/>
	</linearGradient>
	<polygon fill="url(#SVGID_11_)" points="132.1,99.3 132.1,128.5 161.2,128.5 161.2,129 131.5,129 131.5,99.3 	"/>
	<linearGradient id="SVGID_12_" gradientUnits="userSpaceOnUse" x1="135.7997" y1="97.4682" x2="163.8141" y2="125.9071">
		<stop  offset="0" style="stop-color:#EFF0F3"/>
		<stop  offset="0.1067" style="stop-color:#E8EAEC"/>
		<stop  offset="0.2464" style="stop-color:#DCDEE1"/>
		<stop  offset="0.4046" style="stop-color:#C8CACE"/>
		<stop  offset="0.5762" style="stop-color:#ACAFB2"/>
		<stop  offset="0.7587" style="stop-color:#898C8F"/>
		<stop  offset="0.9476" style="stop-color:#606163"/>
		<stop  offset="1" style="stop-color:#515254"/>
	</linearGradient>
	<path fill="url(#SVGID_12_)" d="M160.7,128.5l0.5,0.6c-0.3-16.3-13.4-29.5-29.7-29.8l0.6,0.6C147.6,100.4,160.1,112.9,160.7,128.5
		L160.7,128.5z"/>
	<path fill="#BED7E7" d="M101.2,128.4c0.6-15.6,13.1-28.1,28.7-28.6l0.6-0.6c-16.3,0.3-29.5,13.5-29.8,29.8L101.2,128.4z"/>
	<path fill="#145179" d="M160.7,130.5c-0.5,15.6-13.1,28.3-28.8,28.8l-0.4,0.6c16.3-0.3,29.4-13.4,29.7-29.7
		C161.2,130.1,160.7,130.5,160.7,130.5z"/>
</g>
</svg>
